<svg width="134" height="145" viewBox="0 0 134 145" fill="none" xmlns="http://www.w3.org/2000/svg">
<path d="M108.105 53.2632C108.105 60.551 101.849 66.3802 94.4145 65.6721C87.932 65.0538 83.1724 59.2395 83.1724 52.7271V40.7968C83.1724 38.0418 85.4038 35.8103 88.1589 35.8103H103.118C105.874 35.8103 108.105 38.0418 108.105 40.7968V43.2901L113.092 53.2632H108.105Z" fill="#B6D2FF"/>
<path d="M70.4656 75.0586C70.4656 70.088 74.495 66.0586 79.4656 66.0586H114.604C119.574 66.0586 123.604 70.088 123.604 75.0586V114.576H79.4656C74.495 114.576 70.4656 110.546 70.4656 105.576V75.0586Z" fill="#005DF2"/>
<path d="M96.2093 81.0758L88.9482 66.0586H102.81L96.2093 81.0758Z" fill="white"/>
<path d="M0 90.1034H134V100.5H0V90.1034Z" fill="#454A6D"/>
<path d="M6.93115 100.5H127.069V113.207H6.93115V100.5Z" fill="#33385C"/>
<path d="M0 113.207H134V144.397H0V113.207Z" fill="#454A6D"/>
<circle cx="13.8622" cy="12.7069" r="12.7069" fill="white"/>
<circle cx="28.3016" cy="9.81897" r="9.81897" fill="white"/>
<circle cx="43.8966" cy="10.3966" r="10.3966" fill="white"/>
<circle cx="47.9397" cy="25.9914" r="8.66379" fill="white"/>
<circle cx="64.1121" cy="32.9224" r="5.19828" fill="white"/>
<circle cx="76.2414" cy="38.1207" r="3.46552" fill="white"/>
<circle cx="20.7932" cy="25.4138" r="11.5517" fill="white"/>
<circle cx="9.81897" cy="24.8362" r="9.81897" fill="white"/>
<circle cx="36.3878" cy="24.8362" r="9.81897" fill="white"/>
<circle cx="26" cy="18" r="14" fill="url(#paint0_linear_265_73)"/>
<circle cx="25.6518" cy="27.5203" r="1.35903" fill="#636B9E"/>
<path d="M22.9336 22.0842H28.3697V27.1998C28.3697 27.7521 27.922 28.1998 27.3697 28.1998H23.9336C23.3813 28.1998 22.9336 27.7521 22.9336 27.1998V22.0842Z" fill="#454A6D"/>
<circle cx="25.6516" cy="16.648" r="6.79513" fill="url(#paint1_linear_265_73)"/>
<circle cx="25.6515" cy="19.3661" r="4.07708" fill="url(#paint2_linear_265_73)"/>
<rect x="24.2927" y="24.1227" width="2.71805" height="0.679513" rx="0.339757" fill="#858FCD"/>
<rect x="24.2927" y="25.4818" width="2.71805" height="0.679513" rx="0.339757" fill="#858FCD"/>
<rect x="24.2927" y="26.8408" width="2.71805" height="0.679513" rx="0.339757" fill="#858FCD"/>
<defs>
<linearGradient id="paint0_linear_265_73" x1="26" y1="4" x2="26" y2="32" gradientUnits="userSpaceOnUse">
<stop stop-color="#005DF2"/>
<stop offset="1" stop-color="#DEE9FF" stop-opacity="0"/>
</linearGradient>
<linearGradient id="paint1_linear_265_73" x1="25.6516" y1="9.85291" x2="25.6516" y2="23.4432" gradientUnits="userSpaceOnUse">
<stop stop-color="#005DF2"/>
<stop offset="1" stop-color="#403CFF" stop-opacity="0"/>
</linearGradient>
<linearGradient id="paint2_linear_265_73" x1="25.6515" y1="15.2891" x2="25.6515" y2="23.4432" gradientUnits="userSpaceOnUse">
<stop stop-color="white"/>
<stop offset="1" stop-color="#FFF6DE" stop-opacity="0"/>
</linearGradient>
</defs>
</svg>
