<svg width="117" height="126" viewBox="0 0 117 126" fill="none" xmlns="http://www.w3.org/2000/svg">
<path d="M32.5835 15.9234C32.5835 22.2322 27.1682 27.2785 20.732 26.6655C15.1203 26.1302 11 21.097 11 15.4593V5.13164C11 2.74666 12.9317 0.814941 15.3167 0.814941H28.2668C30.6518 0.814941 32.5835 2.74666 32.5835 5.13164V7.28999L36.9002 15.9234H32.5835Z" fill="#B6D2FF"/>
<path d="M0 36C0 31.0294 4.02944 27 9 27H37C41.9706 27 46 31.0294 46 36V69H9C4.02944 69 0 64.9706 0 60V36Z" fill="#005DF2"/>
<path d="M22.2857 40L16 27H28L22.2857 40Z" fill="white"/>
<circle cx="39" cy="34" r="7" fill="#005DF2"/>
<circle cx="58" cy="53" r="7" fill="#005DF2"/>
<path d="M53 57.5L34 39L43.5 28.5L62 47.5L53 57.5Z" fill="#005DF2"/>
<path d="M84.4165 15.9234C84.4165 22.2322 89.8318 27.2785 96.268 26.6655C101.88 26.1302 106 21.097 106 15.4593V5.13164C106 2.74666 104.068 0.814941 101.683 0.814941H88.7332C86.3482 0.814941 84.4165 2.74666 84.4165 5.13164V7.28999L80.0998 15.9234H84.4165Z" fill="#B6D2FF"/>
<path d="M117 36C117 31.0294 112.971 27 108 27H80C75.0294 27 71 31.0294 71 36V69H108C112.971 69 117 64.9706 117 60V36Z" fill="#5496FF"/>
<path d="M94.7143 40L101 27H89L94.7143 40Z" fill="white"/>
<circle r="7" transform="matrix(-1 0 0 1 78 34)" fill="#5496FF"/>
<circle r="7" transform="matrix(-1 0 0 1 59 53)" fill="#5496FF"/>
<path d="M64 57.5L83 39L73.5 28.5L55 47.5L64 57.5Z" fill="#5496FF"/>
<path d="M1 63H117V72H1V63Z" fill="#454A6D"/>
<path d="M7 72H111V83H7V72Z" fill="#33385C"/>
<path d="M1 83H117V126H1V83Z" fill="#454A6D"/>
</svg>
