<svg width="103" height="96" viewBox="0 0 103 96" fill="none" xmlns="http://www.w3.org/2000/svg">
<circle cx="51" cy="48" r="48" fill="#005DF2"/>
<circle cx="51" cy="48" r="44" fill="#77ACFF"/>
<circle cx="51" cy="48" r="26" fill="white"/>
<circle cx="51" cy="48" r="22" fill="#B3D0FF"/>
<rect y="36" width="103" height="23" rx="5" fill="#005DF2"/>
<path d="M27.127 27.4233C26.5661 27.9428 25.9753 28.2598 25.3544 28.3744C24.7336 28.4889 24.116 28.4212 23.5016 28.1712C22.8899 27.9188 22.3158 27.503 21.7795 26.9239C21.2431 26.3448 20.8725 25.7406 20.6677 25.1113C20.4655 24.4796 20.4453 23.8586 20.607 23.2484C20.7688 22.6382 21.1301 22.0733 21.691 21.5539C22.3431 20.9499 23.0326 20.6191 23.7595 20.5614C24.4889 20.5013 25.1929 20.678 25.8714 21.0915L25.3372 21.9352C24.8334 21.6215 24.3218 21.4799 23.8023 21.5103C23.2829 21.5407 22.7844 21.777 22.3071 22.2191C21.8871 22.6081 21.6257 23.027 21.5229 23.476C21.4202 23.9249 21.4566 24.3855 21.6322 24.8577C21.8055 25.3273 22.0997 25.7889 22.5151 26.2426C22.928 26.6937 23.3632 27.0249 23.8205 27.2362C24.2755 27.4448 24.7332 27.5152 25.1937 27.4473C25.6518 27.3768 26.0909 27.1471 26.5109 26.7581C26.9883 26.316 27.262 25.8371 27.3321 25.3215C27.3998 24.8033 27.2977 24.2824 27.0259 23.7587L27.9081 23.2906C28.266 23.9962 28.3883 24.7116 28.2749 25.4369C28.1618 26.1572 27.7791 26.8193 27.127 27.4233Z" fill="white"/>
<path d="M31.2503 23.9842L27.3827 17.3491L31.5757 14.905L32.0296 15.6837L28.6568 17.6498L29.8681 19.7278L32.688 18.0841L33.1419 18.8628L30.322 20.5065L31.6166 22.7274L34.9894 20.7614L35.4433 21.5401L31.2503 23.9842Z" fill="white"/>
<path d="M37.8641 20.5237L35.4826 13.2222L38.3677 12.2812C38.4387 12.2581 38.5243 12.2339 38.6246 12.2087C38.7237 12.1801 38.8216 12.1594 38.9184 12.1465C39.3338 12.0783 39.7091 12.1055 40.0445 12.228C40.3833 12.3494 40.6727 12.5486 40.9126 12.8256C41.1515 13.0992 41.3343 13.4304 41.4611 13.8192C41.6452 14.3837 41.658 14.9218 41.4996 15.4335C41.34 15.9418 40.9933 16.341 40.4596 16.631L40.133 16.7992L37.8868 17.5318L38.7666 20.2293L37.8641 20.5237ZM42.2095 19.1064L39.8003 16.6048L40.6034 16.0399L43.2438 18.769L42.2095 19.1064ZM37.6073 16.6749L39.5594 16.0382C39.6237 16.0173 39.6952 15.9902 39.7742 15.957C39.8565 15.9226 39.932 15.8849 40.0009 15.8437C40.2165 15.7136 40.3738 15.5538 40.4729 15.3644C40.5742 15.1706 40.6272 14.9663 40.632 14.7515C40.6357 14.5334 40.6044 14.323 40.5383 14.1202C40.4721 13.9173 40.3738 13.7306 40.2434 13.56C40.1118 13.386 39.948 13.2506 39.7518 13.1537C39.5591 13.0558 39.3378 13.0195 39.088 13.0448C39.007 13.0488 38.9237 13.0629 38.8381 13.0871C38.7548 13.1068 38.681 13.1271 38.6168 13.1481L36.6647 13.7848L37.6073 16.6749Z" fill="white"/>
<path d="M47.5601 18.2192L46.8645 11.4763L44.2596 11.7451L44.1671 10.8485L50.3211 10.2136L50.4136 11.1102L47.8088 11.3789L48.5045 18.1218L47.5601 18.2192Z" fill="white"/>
<path d="M53.3151 18.0798L53.7885 10.4144L54.7361 10.473L54.2626 18.1384L53.3151 18.0798Z" fill="white"/>
<path d="M57.5575 18.5239L59.2285 11.0279L63.6011 12.0026L63.3946 12.9292L59.9485 12.161L59.4228 14.5192L62.2443 15.1481L62.0377 16.0747L59.2163 15.4457L58.4841 18.7305L57.5575 18.5239Z" fill="white"/>
<path d="M64.4919 20.4933L67.319 13.3525L68.2016 13.702L65.3746 20.8427L64.4919 20.4933Z" fill="white"/>
<path d="M68.3734 22.2074L72.3316 15.6259L76.4907 18.1273L76.0262 18.8997L72.6806 16.8876L71.4409 18.9489L74.2381 20.6311L73.7735 21.4035L70.9764 19.7213L69.6515 21.9243L72.9971 23.9363L72.5325 24.7087L68.3734 22.2074Z" fill="white"/>
<path d="M74.5878 26.3424L79.8448 20.7437L81.5711 22.3646C81.6281 22.4181 81.7267 22.5131 81.8668 22.6496C82.007 22.786 82.1333 22.9242 82.2459 23.064C82.6252 23.5275 82.8383 24.0251 82.8852 24.5569C82.9372 25.0885 82.8509 25.622 82.6262 26.1573C82.4016 26.6926 82.0654 27.1987 81.6176 27.6756C81.1697 28.1526 80.6858 28.52 80.1656 28.7778C79.6455 29.0357 79.1173 29.1567 78.5811 29.1409C78.0498 29.1249 77.541 28.9422 77.0546 28.5928C76.9104 28.4866 76.7632 28.368 76.6132 28.2369C76.4682 28.1056 76.3685 28.0144 76.3141 27.9633L74.5878 26.3424ZM75.9199 26.3495L76.9347 27.3024C77.0332 27.3949 77.1458 27.4957 77.2725 27.6049C77.4016 27.7115 77.5188 27.7996 77.6242 27.8693C77.9836 28.0994 78.3516 28.2036 78.7282 28.1816C79.1048 28.1597 79.4771 28.0411 79.8451 27.8258C80.2132 27.6104 80.559 27.3304 80.8827 26.9857C81.2137 26.6331 81.4738 26.2652 81.663 25.882C81.8547 25.5012 81.9485 25.1234 81.9442 24.7487C81.94 24.3741 81.8118 24.0172 81.5596 23.678C81.4859 23.5746 81.3893 23.462 81.2698 23.34C81.1502 23.218 81.0438 23.1132 80.9505 23.0255L79.9357 22.0727L75.9199 26.3495Z" fill="white"/>
<path d="M22.0265 76.1221L26.6579 70.213L28.9928 72.0431C29.0502 72.0881 29.1165 72.1444 29.1915 72.2121C29.2687 72.277 29.3389 72.3452 29.402 72.4168C29.6835 72.7169 29.8658 73.0365 29.949 73.3755C30.0349 73.7166 30.0307 74.06 29.9365 74.4057C29.8443 74.7486 29.675 75.0774 29.4284 75.392C29.184 75.7038 28.9038 75.9457 28.588 76.1177C28.277 76.2891 27.9445 76.3752 27.5906 76.376C27.2415 76.3762 26.889 76.2766 26.5331 76.0771C26.4507 76.0302 26.3676 75.9784 26.284 75.9216C26.2004 75.8649 26.1299 75.8141 26.0724 75.769L24.4679 74.5115L22.7569 76.6946L22.0265 76.1221ZM25.0115 73.818L26.5913 75.0563C26.6433 75.097 26.7043 75.1404 26.7742 75.1863C26.8469 75.2345 26.9187 75.2753 26.9896 75.3088C27.2127 75.413 27.428 75.4537 27.6357 75.431C27.8483 75.4077 28.0431 75.3395 28.22 75.2265C28.3991 75.1107 28.5529 74.9707 28.6816 74.8066C28.8102 74.6425 28.9083 74.461 28.9758 74.2622C29.0455 74.0606 29.0662 73.8539 29.038 73.6419C29.0126 73.432 28.9216 73.2326 28.765 73.0437C28.7177 72.9801 28.6609 72.9201 28.5946 72.8638C28.5333 72.8068 28.4766 72.758 28.4246 72.7173L26.8448 71.479L25.0115 73.818Z" fill="white"/>
<path d="M28.2156 80.5009L31.7399 73.8717L34.3594 75.2643C34.4238 75.2986 34.4989 75.3425 34.5846 75.3959C34.672 75.4463 34.7531 75.5012 34.8278 75.5606C35.1575 75.8067 35.393 76.0894 35.5343 76.4086C35.6786 76.7294 35.7347 77.0682 35.7024 77.425C35.6718 77.7788 35.5627 78.1321 35.3751 78.4851C35.1026 78.9976 34.7325 79.3717 34.2648 79.6072C33.7987 79.8397 33.2826 79.8664 32.7164 79.6874L32.3765 79.5717L30.3371 78.4874L29.035 80.9366L28.2156 80.5009ZM32.1609 82.5984L32.2877 79.2056L33.23 79.3877L33.1 83.0976L32.1609 82.5984ZM30.7507 77.7094L32.5231 78.6517C32.5814 78.6827 32.649 78.7147 32.7259 78.7477C32.8059 78.7824 32.8837 78.81 32.9594 78.8305C33.1973 78.894 33.4165 78.8964 33.617 78.8376C33.8222 78.7775 34.002 78.6762 34.1564 78.5339C34.3124 78.3886 34.4393 78.2238 34.5372 78.0397C34.6351 77.8555 34.6999 77.6597 34.7315 77.4521C34.7648 77.2414 34.7489 77.0342 34.6841 76.8305C34.6223 76.6284 34.4977 76.448 34.3104 76.2894C34.2527 76.2351 34.1863 76.186 34.1112 76.1421C34.0408 76.0968 33.9764 76.0587 33.9181 76.0277L32.1457 75.0854L30.7507 77.7094Z" fill="white"/>
<path d="M38.4355 85.0041C37.7218 84.7825 37.165 84.4367 36.765 83.9667C36.3651 83.4967 36.1211 82.9405 36.0331 82.2981C35.9484 81.6567 36.0205 80.9675 36.2494 80.2306C36.4782 79.4937 36.8092 78.885 37.2424 78.4044C37.6788 77.9248 38.195 77.6047 38.7909 77.444C39.3867 77.2833 40.0415 77.3138 40.7551 77.5355C41.4721 77.7581 42.0306 78.1045 42.4306 78.5745C42.8306 79.0445 43.0729 79.6001 43.1576 80.2415C43.2423 80.8829 43.1702 81.5721 42.9413 82.309C42.7124 83.0459 42.3814 83.6546 41.9483 84.1352C41.5151 84.6158 41.0006 84.9364 40.4048 85.0971C39.8089 85.2578 39.1525 85.2268 38.4355 85.0041ZM38.6984 84.1577C39.2318 84.327 39.7137 84.3456 40.1441 84.2136C40.5789 84.0793 40.9518 83.8221 41.2628 83.4419C41.5771 83.0627 41.8229 82.5877 42.0002 82.0167C42.1786 81.4425 42.2452 80.9117 42.1999 80.4245C42.158 79.9384 41.9955 79.5185 41.7122 79.1648C41.4323 78.8122 41.0256 78.5512 40.4923 78.3819C39.9589 78.2126 39.4769 78.194 39.0465 78.326C38.6194 78.459 38.2487 78.7151 37.9344 79.0943C37.6201 79.4734 37.3721 79.9496 37.1904 80.5229C37.0098 81.0928 36.9421 81.6213 36.9873 82.1085C37.0325 82.5957 37.1946 83.0173 37.4735 83.3732C37.7567 83.7269 38.165 83.9884 38.6984 84.1577Z" fill="white"/>
<path d="M46.8393 86.5437C46.3279 86.4883 45.8711 86.3479 45.469 86.1225C45.0669 85.8972 44.732 85.6004 44.4642 85.2323C44.1968 84.8606 44.0061 84.4274 43.8919 83.9326C43.7815 83.4346 43.7589 82.885 43.8241 82.2838C43.9102 81.489 44.1264 80.8167 44.4727 80.2669C44.819 79.717 45.2666 79.3128 45.8156 79.0541C46.3649 78.792 46.9868 78.6986 47.6814 78.7739C48.5177 78.8645 49.1704 79.1328 49.6395 79.5787C50.1089 80.0211 50.4039 80.5897 50.5244 81.2846L49.5706 81.3752C49.4642 80.9057 49.2476 80.5169 48.9209 80.2088C48.5942 79.9007 48.1647 79.7178 47.6326 79.6601C47.0766 79.5963 46.6001 79.6706 46.203 79.8827C45.8097 80.0919 45.4953 80.4126 45.2596 80.8451C45.0239 81.2776 44.872 81.7925 44.8037 82.3899C44.7359 82.9839 44.7709 83.5157 44.9088 83.9851C45.0467 84.4545 45.2867 84.8372 45.6287 85.1329C45.9746 85.4257 46.4255 85.6039 46.9815 85.6676C47.4614 85.7231 47.8757 85.6754 48.2242 85.5244C48.5727 85.3733 48.8559 85.1313 49.0738 84.7983C49.2917 84.4653 49.4464 84.0538 49.538 83.5638L47.9518 83.3919L48.0344 82.6299L50.595 82.9074C50.5979 82.9777 50.5941 83.0612 50.5836 83.1579C50.5769 83.2516 50.5717 83.3157 50.568 83.3503C50.4942 84.031 50.3003 84.6271 49.9861 85.1384C49.6758 85.6467 49.2552 86.0277 48.7243 86.2813C48.1968 86.5353 47.5685 86.6228 46.8393 86.5437Z" fill="white"/>
<path d="M52.364 86.5398L51.7674 79.0558L54.7247 78.82C54.7974 78.8142 54.8843 78.8108 54.9854 78.8097C55.0861 78.8052 55.184 78.8078 55.2789 78.8177C55.6893 78.8477 56.0399 78.9593 56.3307 79.1523C56.625 79.345 56.8546 79.6004 57.0194 79.9185C57.184 80.2332 57.2821 80.5897 57.3139 80.9882C57.36 81.5668 57.2493 82.0812 56.9819 82.5314C56.7141 82.9781 56.2935 83.2784 55.72 83.4322L55.3711 83.5176L53.0687 83.7011L53.2891 86.466L52.364 86.5398ZM56.8181 86.1847L55.0993 83.2568L55.9916 82.9032L57.8783 86.1002L56.8181 86.1847ZM52.9987 82.8228L54.9997 82.6633C55.0655 82.658 55.1397 82.6486 55.2223 82.6351C55.3084 82.6212 55.3888 82.6026 55.4637 82.5792C55.6983 82.5047 55.8843 82.3888 56.0217 82.2314C56.1623 82.0702 56.2594 81.8881 56.3129 81.6851C56.3662 81.4786 56.3846 81.2715 56.368 81.0636C56.3514 80.8557 56.3006 80.6557 56.2156 80.4638C56.1303 80.2683 56.0054 80.1022 55.8411 79.9654C55.6802 79.8283 55.4782 79.7432 55.235 79.7103C55.1571 79.6956 55.0747 79.69 54.9878 79.6934C54.9041 79.6931 54.8293 79.6956 54.7635 79.7008L52.7626 79.8603L52.9987 82.8228Z" fill="white"/>
<path d="M59.855 85.6299L60.3427 77.7278L61.5918 77.3936L65.9594 83.9971L65.0277 84.2463L60.9562 78.1249L61.2383 78.0495L60.7868 85.3807L59.855 85.6299ZM60.5695 83.62L60.3445 82.7789L64.1119 81.7712L64.3369 82.6123L60.5695 83.62Z" fill="white"/>
<path d="M68.1085 83.0257L64.7739 76.2991L65.5306 75.9239L70.7279 80.0221L70.599 73.4114L71.365 73.0316L74.6973 79.7535L73.9079 80.1449L71.481 75.2494L71.6259 81.2819L71.1822 81.5019L66.4688 77.7342L68.8979 82.6343L68.1085 83.0257Z" fill="white"/>
<path d="M78.5825 76.8373C78.1621 77.163 77.7276 77.3853 77.2789 77.5042C76.833 77.621 76.398 77.6327 75.9738 77.5392C75.5502 77.4408 75.165 77.2358 74.8181 76.9242L75.4839 76.2171C75.8695 76.5164 76.2955 76.6547 76.7616 76.6321C77.2284 76.6047 77.6679 76.4313 78.08 76.112C78.3466 75.9055 78.5551 75.6781 78.7056 75.4296C78.8566 75.1763 78.9347 74.9223 78.9398 74.6678C78.9449 74.4132 78.8644 74.1788 78.6984 73.9645C78.5962 73.8326 78.4856 73.738 78.3665 73.6808C78.248 73.6187 78.1234 73.5855 77.9926 73.5813C77.8625 73.5722 77.7298 73.5826 77.5947 73.6125C77.4596 73.6424 77.3268 73.6838 77.1962 73.7366L75.3355 74.4591C75.1323 74.5373 74.9251 74.599 74.7137 74.644C74.5002 74.6863 74.2894 74.6979 74.0812 74.6789C73.8709 74.6571 73.6683 74.5942 73.4734 74.4902C73.2764 74.3834 73.0927 74.2201 72.9224 74.0003C72.65 73.6486 72.5086 73.2788 72.4984 72.891C72.4888 72.4984 72.5896 72.1148 72.8006 71.7402C73.0117 71.3657 73.3148 71.0276 73.7099 70.7259C74.1104 70.42 74.5216 70.2158 74.9434 70.1133C75.3658 70.0059 75.7801 70.0015 76.1863 70.1002C76.5952 70.1967 76.9748 70.3973 77.3251 70.7019L76.6515 71.4414C76.423 71.2315 76.1702 71.0953 75.8932 71.0329C75.6168 70.9656 75.3367 70.9672 75.0527 71.0377C74.7666 71.1054 74.4961 71.2358 74.2412 71.4289C73.9973 71.6134 73.8086 71.8211 73.6753 72.052C73.5419 72.2828 73.4729 72.5143 73.4681 72.7466C73.4613 72.9761 73.5292 73.183 73.6718 73.3671C73.8123 73.5484 73.9784 73.655 74.17 73.6868C74.3596 73.7158 74.5555 73.7047 74.7577 73.6536C74.9605 73.5976 75.1507 73.5338 75.3283 73.4622L76.7099 72.913C76.8667 72.8487 77.0534 72.7832 77.27 72.7165C77.4893 72.6478 77.7233 72.6094 77.9721 72.6013C78.2188 72.5905 78.4677 72.6395 78.719 72.7482C78.9682 72.8541 79.2034 73.05 79.4248 73.3358C79.6462 73.6215 79.7854 73.9204 79.8424 74.2324C79.9021 74.5422 79.8889 74.8515 79.8026 75.1601C79.7142 75.466 79.5652 75.7617 79.3555 76.0473C79.148 76.3356 78.8903 76.5989 78.5825 76.8373Z" fill="white"/>
<path d="M33.51 55V44.407L31.08 45.892V43.498L33.51 42.04H35.724V55H33.51ZM43.8146 55.27C42.8966 55.27 42.0866 55.075 41.3846 54.685C40.6826 54.289 40.1336 53.74 39.7376 53.038C39.3476 52.336 39.1526 51.526 39.1526 50.608V46.432C39.1526 45.514 39.3476 44.704 39.7376 44.002C40.1336 43.3 40.6826 42.754 41.3846 42.364C42.0866 41.968 42.8966 41.77 43.8146 41.77C44.7326 41.77 45.5396 41.968 46.2356 42.364C46.9376 42.754 47.4866 43.3 47.8826 44.002C48.2786 44.704 48.4766 45.514 48.4766 46.432V50.608C48.4766 51.526 48.2786 52.336 47.8826 53.038C47.4866 53.74 46.9376 54.289 46.2356 54.685C45.5396 55.075 44.7326 55.27 43.8146 55.27ZM43.8146 53.209C44.2706 53.209 44.6846 53.101 45.0566 52.885C45.4286 52.663 45.7226 52.369 45.9386 52.003C46.1546 51.631 46.2626 51.217 46.2626 50.761V46.27C46.2626 45.808 46.1546 45.394 45.9386 45.028C45.7226 44.656 45.4286 44.362 45.0566 44.146C44.6846 43.924 44.2706 43.813 43.8146 43.813C43.3586 43.813 42.9446 43.924 42.5726 44.146C42.2006 44.362 41.9066 44.656 41.6906 45.028C41.4746 45.394 41.3666 45.808 41.3666 46.27V50.761C41.3666 51.217 41.4746 51.631 41.6906 52.003C41.9066 52.369 42.2006 52.663 42.5726 52.885C42.9446 53.101 43.3586 53.209 43.8146 53.209ZM55.6622 55.27C54.7442 55.27 53.9342 55.075 53.2322 54.685C52.5302 54.289 51.9812 53.74 51.5852 53.038C51.1952 52.336 51.0002 51.526 51.0002 50.608V46.432C51.0002 45.514 51.1952 44.704 51.5852 44.002C51.9812 43.3 52.5302 42.754 53.2322 42.364C53.9342 41.968 54.7442 41.77 55.6622 41.77C56.5802 41.77 57.3872 41.968 58.0832 42.364C58.7852 42.754 59.3342 43.3 59.7302 44.002C60.1262 44.704 60.3242 45.514 60.3242 46.432V50.608C60.3242 51.526 60.1262 52.336 59.7302 53.038C59.3342 53.74 58.7852 54.289 58.0832 54.685C57.3872 55.075 56.5802 55.27 55.6622 55.27ZM55.6622 53.209C56.1182 53.209 56.5322 53.101 56.9042 52.885C57.2762 52.663 57.5702 52.369 57.7862 52.003C58.0022 51.631 58.1102 51.217 58.1102 50.761V46.27C58.1102 45.808 58.0022 45.394 57.7862 45.028C57.5702 44.656 57.2762 44.362 56.9042 44.146C56.5322 43.924 56.1182 43.813 55.6622 43.813C55.2062 43.813 54.7922 43.924 54.4202 44.146C54.0482 44.362 53.7542 44.656 53.5382 45.028C53.3222 45.394 53.2142 45.808 53.2142 46.27V50.761C53.2142 51.217 53.3222 51.631 53.5382 52.003C53.7542 52.369 54.0482 52.663 54.4202 52.885C54.7922 53.101 55.2062 53.209 55.6622 53.209ZM64.6479 55L63.2079 53.56L74.7369 42.04L76.1769 43.489L64.6479 55ZM73.4769 55.27C72.8829 55.27 72.3399 55.126 71.8479 54.838C71.3619 54.544 70.9719 54.154 70.6779 53.668C70.3839 53.176 70.2369 52.63 70.2369 52.03C70.2369 51.442 70.3869 50.902 70.6869 50.41C70.9869 49.918 71.3829 49.525 71.8749 49.231C72.3669 48.937 72.9009 48.79 73.4769 48.79C74.0709 48.79 74.6139 48.937 75.1059 49.231C75.5979 49.519 75.9879 49.909 76.2759 50.401C76.5699 50.887 76.7169 51.43 76.7169 52.03C76.7169 52.63 76.5699 53.176 76.2759 53.668C75.9879 54.154 75.5979 54.544 75.1059 54.838C74.6139 55.126 74.0709 55.27 73.4769 55.27ZM73.4769 53.416C73.7229 53.416 73.9509 53.353 74.1609 53.227C74.3769 53.101 74.5479 52.933 74.6739 52.723C74.7999 52.513 74.8629 52.282 74.8629 52.03C74.8629 51.778 74.7999 51.547 74.6739 51.337C74.5479 51.127 74.3769 50.959 74.1609 50.833C73.9509 50.707 73.7229 50.644 73.4769 50.644C73.2249 50.644 72.9939 50.707 72.7839 50.833C72.5739 50.959 72.4029 51.127 72.2709 51.337C72.1449 51.547 72.0819 51.778 72.0819 52.03C72.0819 52.282 72.1449 52.513 72.2709 52.723C72.4029 52.933 72.5739 53.101 72.7839 53.227C72.9939 53.353 73.2249 53.416 73.4769 53.416ZM65.9079 48.25C65.3139 48.25 64.7709 48.106 64.2789 47.818C63.7869 47.524 63.3939 47.134 63.0999 46.648C62.8119 46.156 62.6679 45.61 62.6679 45.01C62.6679 44.422 62.8179 43.882 63.1179 43.39C63.4179 42.898 63.8139 42.505 64.3059 42.211C64.7979 41.917 65.3319 41.77 65.9079 41.77C66.5019 41.77 67.0419 41.917 67.5279 42.211C68.0199 42.499 68.4129 42.889 68.7069 43.381C69.0009 43.867 69.1479 44.41 69.1479 45.01C69.1479 45.61 69.0009 46.156 68.7069 46.648C68.4129 47.134 68.0199 47.524 67.5279 47.818C67.0419 48.106 66.5019 48.25 65.9079 48.25ZM65.9079 46.396C66.1599 46.396 66.3909 46.333 66.6009 46.207C66.8109 46.081 66.9789 45.913 67.1049 45.703C67.2309 45.493 67.2939 45.262 67.2939 45.01C67.2939 44.758 67.2309 44.527 67.1049 44.317C66.9789 44.107 66.8109 43.939 66.6009 43.813C66.3909 43.687 66.1599 43.624 65.9079 43.624C65.6559 43.624 65.4249 43.687 65.2149 43.813C65.0049 43.939 64.8369 44.107 64.7109 44.317C64.5849 44.527 64.5219 44.758 64.5219 45.01C64.5219 45.262 64.5849 45.493 64.7109 45.703C64.8369 45.913 65.0049 46.081 65.2149 46.207C65.4249 46.333 65.6559 46.396 65.9079 46.396Z" fill="white"/>
</svg>
