<svg width="1151" height="377" viewBox="0 0 1151 377" fill="none" xmlns="http://www.w3.org/2000/svg">
<path d="M624.148 324.431C621.068 324.431 618.29 323.907 615.814 322.861C613.359 321.814 611.325 320.324 609.715 318.392C608.125 316.439 607.088 314.134 606.605 311.477L612.161 310.601C612.865 313.339 614.325 315.483 616.539 317.033C618.774 318.563 621.401 319.328 624.42 319.328C626.373 319.328 628.134 319.026 629.704 318.422C631.295 317.798 632.553 316.912 633.479 315.765C634.405 314.617 634.868 313.259 634.868 311.688C634.868 310.722 634.697 309.897 634.354 309.212C634.032 308.508 633.579 307.914 632.996 307.431C632.432 306.928 631.788 306.505 631.063 306.163C630.338 305.82 629.584 305.539 628.798 305.317L617.717 302.026C616.509 301.664 615.341 301.211 614.214 300.667C613.087 300.103 612.08 299.409 611.195 298.584C610.309 297.738 609.604 296.732 609.081 295.564C608.558 294.376 608.296 292.977 608.296 291.367C608.296 288.79 608.96 286.596 610.289 284.784C611.637 282.953 613.459 281.553 615.754 280.587C618.049 279.621 620.636 279.148 623.514 279.168C626.433 279.188 629.04 279.712 631.335 280.738C633.65 281.745 635.562 283.194 637.072 285.086C638.602 286.979 639.629 289.243 640.152 291.88L634.445 292.877C634.143 291.105 633.469 289.585 632.422 288.317C631.395 287.029 630.107 286.043 628.557 285.358C627.007 284.654 625.306 284.291 623.454 284.271C621.682 284.251 620.082 284.533 618.653 285.117C617.224 285.7 616.086 286.516 615.241 287.562C614.395 288.589 613.973 289.777 613.973 291.125C613.973 292.454 614.355 293.531 615.12 294.356C615.885 295.162 616.821 295.806 617.928 296.289C619.055 296.752 620.153 297.134 621.219 297.436L629.493 299.822C630.439 300.083 631.526 300.446 632.754 300.909C634.002 301.372 635.21 302.026 636.378 302.871C637.545 303.697 638.511 304.804 639.276 306.193C640.041 307.562 640.424 309.293 640.424 311.386C640.424 313.48 640.001 315.342 639.155 316.973C638.33 318.603 637.173 319.972 635.683 321.079C634.193 322.166 632.462 322.992 630.489 323.555C628.517 324.139 626.403 324.431 624.148 324.431ZM659.138 324.37C657.044 324.37 655.243 324.038 653.733 323.374C652.243 322.71 651.005 321.824 650.019 320.717C649.032 319.61 648.257 318.382 647.694 317.033C647.13 315.684 646.727 314.305 646.486 312.896C646.264 311.487 646.154 310.169 646.154 308.941V290.914H651.589V307.25C651.589 308.78 651.73 310.259 652.012 311.688C652.293 313.118 652.767 314.406 653.431 315.553C654.115 316.701 655.021 317.607 656.148 318.271C657.296 318.935 658.725 319.267 660.436 319.267C661.785 319.267 663.013 319.036 664.12 318.573C665.227 318.11 666.173 317.426 666.958 316.52C667.743 315.594 668.347 314.426 668.77 313.017C669.193 311.608 669.404 309.967 669.404 308.095L672.937 309.182C672.937 312.323 672.363 315.03 671.216 317.305C670.089 319.579 668.488 321.331 666.415 322.559C664.362 323.767 661.936 324.37 659.138 324.37ZM670.008 323.525V314.799H669.404V290.914H674.809V323.525H670.008ZM697.002 324.431C693.701 324.431 690.893 323.696 688.578 322.227C686.283 320.737 684.532 318.694 683.324 316.097C682.116 313.5 681.492 310.541 681.452 307.22C681.492 303.818 682.126 300.828 683.354 298.252C684.602 295.655 686.384 293.632 688.698 292.182C691.013 290.733 693.802 290.008 697.063 290.008C700.505 290.008 703.464 290.854 705.94 292.545C708.436 294.236 710.107 296.551 710.952 299.49L705.638 301.09C704.954 299.198 703.836 297.728 702.286 296.681C700.757 295.635 698.995 295.111 697.002 295.111C694.768 295.111 692.926 295.635 691.476 296.681C690.027 297.708 688.95 299.137 688.246 300.969C687.541 302.781 687.179 304.864 687.159 307.22C687.199 310.843 688.034 313.772 689.665 316.006C691.315 318.221 693.761 319.328 697.002 319.328C699.136 319.328 700.907 318.845 702.317 317.878C703.726 316.892 704.793 315.473 705.517 313.621L710.952 315.04C709.825 318.08 708.064 320.405 705.668 322.015C703.273 323.626 700.384 324.431 697.002 324.431ZM729.969 324.431C726.668 324.431 723.86 323.696 721.545 322.227C719.25 320.737 717.499 318.694 716.291 316.097C715.083 313.5 714.459 310.541 714.419 307.22C714.459 303.818 715.093 300.828 716.321 298.252C717.569 295.655 719.351 293.632 721.666 292.182C723.981 290.733 726.769 290.008 730.03 290.008C733.472 290.008 736.431 290.854 738.907 292.545C741.403 294.236 743.074 296.551 743.92 299.49L738.605 301.09C737.921 299.198 736.804 297.728 735.254 296.681C733.724 295.635 731.962 295.111 729.969 295.111C727.735 295.111 725.893 295.635 724.444 296.681C722.994 297.708 721.917 299.137 721.213 300.969C720.508 302.781 720.146 304.864 720.126 307.22C720.166 310.843 721.001 313.772 722.632 316.006C724.283 318.221 726.728 319.328 729.969 319.328C732.103 319.328 733.875 318.845 735.284 317.878C736.693 316.892 737.76 315.473 738.484 313.621L743.92 315.04C742.792 318.08 741.031 320.405 738.635 322.015C736.24 323.626 733.351 324.431 729.969 324.431ZM763.329 324.431C760.128 324.431 757.33 323.726 754.935 322.317C752.559 320.888 750.707 318.905 749.379 316.369C748.05 313.812 747.386 310.833 747.386 307.431C747.386 303.868 748.04 300.788 749.349 298.191C750.657 295.574 752.479 293.561 754.814 292.152C757.169 290.723 759.927 290.008 763.088 290.008C766.369 290.008 769.157 290.763 771.452 292.273C773.767 293.783 775.498 295.937 776.645 298.735C777.813 301.533 778.316 304.864 778.155 308.729H772.72V306.797C772.66 302.791 771.844 299.802 770.274 297.829C768.704 295.836 766.369 294.839 763.269 294.839C759.947 294.839 757.421 295.906 755.69 298.04C753.959 300.174 753.093 303.234 753.093 307.22C753.093 311.064 753.959 314.044 755.69 316.157C757.421 318.271 759.887 319.328 763.088 319.328C765.242 319.328 767.114 318.835 768.704 317.848C770.294 316.862 771.542 315.443 772.448 313.591L777.612 315.372C776.343 318.251 774.431 320.485 771.874 322.076C769.338 323.646 766.49 324.431 763.329 324.431ZM751.281 308.729V304.411H775.377V308.729H751.281ZM797.197 324.401C793.312 324.401 790.122 323.555 787.626 321.864C785.15 320.153 783.63 317.768 783.066 314.708L788.562 313.832C789.004 315.604 790.021 317.013 791.611 318.06C793.202 319.086 795.174 319.6 797.53 319.6C799.764 319.6 801.515 319.137 802.784 318.211C804.052 317.285 804.686 316.027 804.686 314.436C804.686 313.51 804.475 312.765 804.052 312.202C803.629 311.618 802.753 311.074 801.425 310.571C800.116 310.068 798.134 309.464 795.476 308.759C792.598 307.995 790.333 307.199 788.682 306.374C787.032 305.549 785.854 304.593 785.15 303.506C784.445 302.418 784.093 301.1 784.093 299.55C784.093 297.638 784.616 295.967 785.663 294.537C786.71 293.088 788.169 291.971 790.041 291.186C791.933 290.401 794.128 290.008 796.624 290.008C799.1 290.008 801.314 290.401 803.267 291.186C805.219 291.971 806.79 293.088 807.977 294.537C809.185 295.967 809.9 297.638 810.121 299.55L804.626 300.546C804.364 298.795 803.518 297.416 802.089 296.41C800.68 295.403 798.858 294.87 796.624 294.809C794.51 294.729 792.789 295.101 791.46 295.926C790.152 296.752 789.498 297.869 789.498 299.278C789.498 300.063 789.739 300.738 790.222 301.301C790.726 301.865 791.642 302.398 792.97 302.902C794.319 303.405 796.271 303.979 798.828 304.623C801.707 305.347 803.971 306.143 805.622 307.008C807.293 307.854 808.48 308.86 809.185 310.028C809.89 311.175 810.242 312.594 810.242 314.285C810.242 317.426 809.084 319.902 806.769 321.713C804.454 323.505 801.264 324.401 797.197 324.401ZM829.221 324.401C825.336 324.401 822.145 323.555 819.649 321.864C817.173 320.153 815.653 317.768 815.09 314.708L820.585 313.832C821.028 315.604 822.045 317.013 823.635 318.06C825.225 319.086 827.198 319.6 829.553 319.6C831.788 319.6 833.539 319.137 834.807 318.211C836.075 317.285 836.71 316.027 836.71 314.436C836.71 313.51 836.498 312.765 836.075 312.202C835.653 311.618 834.777 311.074 833.448 310.571C832.14 310.068 830.157 309.464 827.5 308.759C824.621 307.995 822.357 307.199 820.706 306.374C819.055 305.549 817.878 304.593 817.173 303.506C816.469 302.418 816.116 301.1 816.116 299.55C816.116 297.638 816.64 295.967 817.686 294.537C818.733 293.088 820.193 291.971 822.065 291.186C823.957 290.401 826.151 290.008 828.647 290.008C831.123 290.008 833.338 290.401 835.29 291.186C837.243 291.971 838.813 293.088 840.001 294.537C841.209 295.967 841.923 297.638 842.145 299.55L836.649 300.546C836.387 298.795 835.542 297.416 834.113 296.41C832.704 295.403 830.882 294.87 828.647 294.809C826.534 294.729 824.813 295.101 823.484 295.926C822.175 296.752 821.521 297.869 821.521 299.278C821.521 300.063 821.763 300.738 822.246 301.301C822.749 301.865 823.665 302.398 824.994 302.902C826.342 303.405 828.295 303.979 830.852 304.623C833.73 305.347 835.995 306.143 837.646 307.008C839.316 307.854 840.504 308.86 841.209 310.028C841.913 311.175 842.265 312.594 842.265 314.285C842.265 317.426 841.108 319.902 838.793 321.713C836.478 323.505 833.287 324.401 829.221 324.401ZM876.445 324.431C873.365 324.431 870.587 323.907 868.111 322.861C865.655 321.814 863.622 320.324 862.011 318.392C860.421 316.439 859.384 314.134 858.901 311.477L864.457 310.601C865.162 313.339 866.621 315.483 868.835 317.033C871.07 318.563 873.697 319.328 876.716 319.328C878.669 319.328 880.43 319.026 882.001 318.422C883.591 317.798 884.849 316.912 885.775 315.765C886.701 314.617 887.164 313.259 887.164 311.688C887.164 310.722 886.993 309.897 886.651 309.212C886.329 308.508 885.876 307.914 885.292 307.431C884.728 306.928 884.084 306.505 883.359 306.163C882.635 305.82 881.88 305.539 881.095 305.317L870.013 302.026C868.805 301.664 867.638 301.211 866.51 300.667C865.383 300.103 864.377 299.409 863.491 298.584C862.605 297.738 861.901 296.732 861.377 295.564C860.854 294.376 860.592 292.977 860.592 291.367C860.592 288.79 861.256 286.596 862.585 284.784C863.934 282.953 865.756 281.553 868.05 280.587C870.345 279.621 872.932 279.148 875.811 279.168C878.729 279.188 881.336 279.712 883.631 280.738C885.946 281.745 887.859 283.194 889.368 285.086C890.898 286.979 891.925 289.243 892.448 291.88L886.741 292.877C886.439 291.105 885.765 289.585 884.718 288.317C883.692 287.029 882.403 286.043 880.853 285.358C879.303 284.654 877.602 284.291 875.75 284.271C873.979 284.251 872.378 284.533 870.949 285.117C869.52 285.7 868.383 286.516 867.537 287.562C866.692 288.589 866.269 289.777 866.269 291.125C866.269 292.454 866.651 293.531 867.416 294.356C868.181 295.162 869.117 295.806 870.224 296.289C871.352 296.752 872.449 297.134 873.516 297.436L881.789 299.822C882.735 300.083 883.822 300.446 885.05 300.909C886.298 301.372 887.506 302.026 888.674 302.871C889.841 303.697 890.808 304.804 891.573 306.193C892.338 307.562 892.72 309.293 892.72 311.386C892.72 313.48 892.297 315.342 891.452 316.973C890.626 318.603 889.469 319.972 887.979 321.079C886.49 322.166 884.758 322.992 882.786 323.555C880.813 324.139 878.699 324.431 876.445 324.431ZM902.993 338.019L909.304 320.868L909.395 325.941L895.143 290.914H900.789L911.962 319.086H910.029L920.507 290.914H925.972L908.217 338.019H902.993ZM943.279 324.401C939.394 324.401 936.204 323.555 933.707 321.864C931.231 320.153 929.712 317.768 929.148 314.708L934.643 313.832C935.086 315.604 936.103 317.013 937.693 318.06C939.283 319.086 941.256 319.6 943.611 319.6C945.846 319.6 947.597 319.137 948.865 318.211C950.134 317.285 950.768 316.027 950.768 314.436C950.768 313.51 950.556 312.765 950.134 312.202C949.711 311.618 948.835 311.074 947.507 310.571C946.198 310.068 944.215 309.464 941.558 308.759C938.68 307.995 936.415 307.199 934.764 306.374C933.114 305.549 931.936 304.593 931.231 303.506C930.527 302.418 930.175 301.1 930.175 299.55C930.175 297.638 930.698 295.967 931.745 294.537C932.791 293.088 934.251 291.971 936.123 291.186C938.015 290.401 940.209 290.008 942.706 290.008C945.182 290.008 947.396 290.401 949.349 291.186C951.301 291.971 952.871 293.088 954.059 294.537C955.267 295.967 955.981 297.638 956.203 299.55L950.707 300.546C950.446 298.795 949.6 297.416 948.171 296.41C946.762 295.403 944.94 294.87 942.706 294.809C940.592 294.729 938.871 295.101 937.542 295.926C936.234 296.752 935.579 297.869 935.579 299.278C935.579 300.063 935.821 300.738 936.304 301.301C936.807 301.865 937.723 302.398 939.052 302.902C940.401 303.405 942.353 303.979 944.91 304.623C947.788 305.347 950.053 306.143 951.704 307.008C953.375 307.854 954.562 308.86 955.267 310.028C955.971 311.175 956.324 312.594 956.324 314.285C956.324 317.426 955.166 319.902 952.851 321.713C950.536 323.505 947.346 324.401 943.279 324.401ZM981.191 323.525C979.258 323.907 977.346 324.058 975.454 323.978C973.582 323.918 971.911 323.545 970.441 322.861C968.972 322.156 967.855 321.069 967.09 319.6C966.446 318.311 966.093 317.013 966.033 315.704C965.993 314.376 965.972 312.876 965.972 311.205V281.855H971.347V310.964C971.347 312.292 971.357 313.43 971.377 314.376C971.418 315.322 971.629 316.137 972.012 316.822C972.736 318.11 973.884 318.865 975.454 319.086C977.044 319.308 978.956 319.247 981.191 318.905V323.525ZM959.36 295.353V290.914H981.191V295.353H959.36ZM1000.59 324.431C997.386 324.431 994.588 323.726 992.192 322.317C989.817 320.888 987.965 318.905 986.636 316.369C985.308 313.812 984.644 310.833 984.644 307.431C984.644 303.868 985.298 300.788 986.606 298.191C987.915 295.574 989.737 293.561 992.072 292.152C994.427 290.723 997.185 290.008 1000.35 290.008C1003.63 290.008 1006.41 290.763 1008.71 292.273C1011.02 293.783 1012.76 295.937 1013.9 298.735C1015.07 301.533 1015.57 304.864 1015.41 308.729H1009.98V306.797C1009.92 302.791 1009.1 299.802 1007.53 297.829C1005.96 295.836 1003.63 294.839 1000.53 294.839C997.205 294.839 994.679 295.906 992.947 298.04C991.216 300.174 990.351 303.234 990.351 307.22C990.351 311.064 991.216 314.044 992.947 316.157C994.679 318.271 997.144 319.328 1000.35 319.328C1002.5 319.328 1004.37 318.835 1005.96 317.848C1007.55 316.862 1008.8 315.443 1009.71 313.591L1014.87 315.372C1013.6 318.251 1011.69 320.485 1009.13 322.076C1006.6 323.646 1003.75 324.431 1000.59 324.431ZM988.539 308.729V304.411H1012.63V308.729H988.539ZM1060.23 323.525L1060.26 302.66C1060.26 300.224 1059.61 298.322 1058.3 296.953C1057.01 295.564 1055.33 294.87 1053.26 294.87C1052.05 294.87 1050.9 295.151 1049.82 295.715C1048.73 296.259 1047.84 297.124 1047.16 298.312C1046.47 299.479 1046.13 300.979 1046.13 302.811L1043.29 301.664C1043.25 299.349 1043.73 297.326 1044.71 295.594C1045.72 293.843 1047.09 292.484 1048.82 291.518C1050.55 290.552 1052.5 290.069 1054.68 290.069C1058.08 290.069 1060.76 291.105 1062.71 293.179C1064.66 295.232 1065.64 298 1065.64 301.482L1065.61 323.525H1060.23ZM1021.22 323.525V290.914H1026.02V299.641H1026.63V323.525H1021.22ZM1040.76 323.525L1040.79 302.871C1040.79 300.375 1040.14 298.423 1038.85 297.014C1037.57 295.584 1035.86 294.87 1033.72 294.87C1031.61 294.87 1029.9 295.594 1028.59 297.044C1027.28 298.493 1026.63 300.416 1026.63 302.811L1023.79 301.12C1023.79 299.006 1024.29 297.114 1025.3 295.443C1026.3 293.773 1027.67 292.464 1029.4 291.518C1031.13 290.552 1033.1 290.069 1035.29 290.069C1037.49 290.069 1039.4 290.532 1041.03 291.458C1042.66 292.384 1043.92 293.712 1044.8 295.443C1045.69 297.154 1046.13 299.198 1046.13 301.573L1046.1 323.525H1040.76ZM1085.82 324.401C1081.94 324.401 1078.75 323.555 1076.25 321.864C1073.77 320.153 1072.25 317.768 1071.69 314.708L1077.19 313.832C1077.63 315.604 1078.65 317.013 1080.24 318.06C1081.83 319.086 1083.8 319.6 1086.15 319.6C1088.39 319.6 1090.14 319.137 1091.41 318.211C1092.68 317.285 1093.31 316.027 1093.31 314.436C1093.31 313.51 1093.1 312.765 1092.68 312.202C1092.25 311.618 1091.38 311.074 1090.05 310.571C1088.74 310.068 1086.76 309.464 1084.1 308.759C1081.22 307.995 1078.96 307.199 1077.31 306.374C1075.66 305.549 1074.48 304.593 1073.77 303.506C1073.07 302.418 1072.72 301.1 1072.72 299.55C1072.72 297.638 1073.24 295.967 1074.29 294.537C1075.33 293.088 1076.79 291.971 1078.67 291.186C1080.56 290.401 1082.75 290.008 1085.25 290.008C1087.72 290.008 1089.94 290.401 1091.89 291.186C1093.84 291.971 1095.41 293.088 1096.6 294.537C1097.81 295.967 1098.52 297.638 1098.75 299.55L1093.25 300.546C1092.99 298.795 1092.14 297.416 1090.71 296.41C1089.31 295.403 1087.48 294.87 1085.25 294.809C1083.14 294.729 1081.41 295.101 1080.09 295.926C1078.78 296.752 1078.12 297.869 1078.12 299.278C1078.12 300.063 1078.36 300.738 1078.85 301.301C1079.35 301.865 1080.27 302.398 1081.6 302.902C1082.94 303.405 1084.9 303.979 1087.45 304.623C1090.33 305.347 1092.6 306.143 1094.25 307.008C1095.92 307.854 1097.11 308.86 1097.81 310.028C1098.51 311.175 1098.87 312.594 1098.87 314.285C1098.87 317.426 1097.71 319.902 1095.39 321.713C1093.08 323.505 1089.89 324.401 1085.82 324.401Z" fill="white"/>
<path d="M578.576 121.368C552.194 121.368 547.103 119.054 531.829 119.054C500.124 119.054 478.602 138.725 478.602 166.727C478.602 192.415 501.281 212.086 530.672 212.086C533.68 212.086 536.458 211.854 539.235 211.623C551.963 213.011 559.6 222.268 559.6 235.459C559.6 249.576 548.723 259.296 532.061 259.296C499.199 259.064 505.91 223.425 488.785 223.425C481.148 223.425 477.676 228.748 477.676 234.302C477.676 250.733 496.19 267.858 531.135 267.858C563.071 267.858 586.908 254.899 586.908 234.302C586.908 221.574 578.345 211.16 558.211 206.531C574.642 198.895 585.056 184.084 585.056 165.57C585.056 154.23 579.039 142.427 570.477 134.791C577.419 132.939 585.751 133.865 588.528 127.848C590.61 124.377 588.759 121.368 578.576 121.368ZM505.447 154.924C505.447 139.188 513.778 127.848 527.432 127.848C545.946 127.848 558.211 150.527 558.211 175.752C558.211 191.489 549.417 203.06 535.069 203.06C518.869 203.06 505.447 181.075 505.447 154.924ZM608.213 232.451H643.389C646.398 232.451 648.48 231.062 648.48 228.979V228.285C648.48 222.962 638.992 222.268 638.992 213.243V62.8181C638.992 59.3468 635.984 56.5697 630.661 59.1154L607.287 70.6865C604.973 71.8436 603.353 72.7693 603.353 74.8521V75.5464C603.353 79.712 611.916 81.5634 611.916 91.2831V213.243C611.916 222.268 603.353 222.962 603.353 228.285V228.979C603.353 231.062 605.204 232.451 608.213 232.451ZM724.812 234.765C758.368 234.765 780.585 209.309 780.585 177.604C780.585 145.667 756.054 119.054 719.489 119.054C687.784 119.054 662.096 142.89 662.096 175.752C662.096 206.531 685.47 234.765 724.812 234.765ZM728.283 225.971C704.91 225.971 689.404 195.423 689.404 166.727C689.404 141.27 700.05 127.848 716.481 127.848C737.772 127.848 753.277 154.693 753.277 187.092C753.277 212.086 742.631 225.971 728.283 225.971ZM860.95 119.054C848.453 119.054 837.576 123.451 830.402 131.319V63.0496C830.402 58.1897 826.931 56.8012 822.071 59.1154L798.234 70.4551C794.763 72.0751 793.606 73.0007 793.606 75.0835V75.7778C793.606 80.8691 803.557 81.5634 803.557 91.5145V213.011C803.557 222.268 794.763 223.657 794.763 228.517V229.211C794.763 231.294 796.383 232.451 798.929 232.451L823.922 232.914C826.931 232.914 828.551 231.525 828.551 228.517L828.319 220.185C836.188 229.442 847.296 234.765 861.181 234.765C890.34 234.765 914.64 210.234 914.64 175.058C914.64 139.882 888.72 119.054 860.95 119.054ZM857.941 225.971C843.825 225.971 830.402 210.003 830.402 193.109V153.999C830.402 139.188 841.279 127.848 854.239 127.848C874.141 127.848 887.332 150.527 887.332 183.621C887.332 210.697 876.224 225.971 857.941 225.971ZM1029 211.623L1024.37 167.19C1021.13 137.336 1002.38 119.054 973.224 119.054C948.462 119.054 930.411 130.394 930.411 144.973C930.411 151.453 934.808 155.619 941.751 155.619C956.33 155.619 951.702 127.616 973.224 127.616C989.424 127.616 994.978 141.502 997.523 168.347L997.986 172.975C991.738 168.115 982.481 165.107 971.141 165.107C947.768 165.107 928.791 177.141 929.022 199.82C929.022 222.5 947.073 234.765 972.298 234.765C988.729 234.765 999.143 228.517 1004.47 219.954C1005.39 231.294 1011.18 233.839 1022.98 233.839C1032.93 233.839 1041.73 232.451 1041.73 228.054C1041.73 222.037 1030.62 226.665 1029 211.623ZM979.935 225.971C965.587 225.971 956.33 212.317 956.33 196.58C956.33 182.695 965.356 173.901 978.084 173.901C990.349 173.901 999.143 182.232 1000.07 195.423L1000.76 202.597C1001.46 215.094 992.895 225.971 979.935 225.971ZM1054.33 232.451H1089.51C1092.52 232.451 1094.6 231.062 1094.6 228.979V228.285C1094.6 222.962 1085.11 222.268 1085.11 213.243V62.8181C1085.11 59.3468 1082.1 56.5697 1076.78 59.1154L1053.41 70.6865C1051.09 71.8436 1049.47 72.7693 1049.47 74.8521V75.5464C1049.47 79.712 1058.04 81.5634 1058.04 91.2831V213.243C1058.04 222.268 1049.47 222.962 1049.47 228.285V228.979C1049.47 231.062 1051.33 232.451 1054.33 232.451Z" fill="white"/>
<path fill-rule="evenodd" clip-rule="evenodd" d="M370.475 195.741C370.475 197.971 370.429 200.19 370.338 202.398C347.92 222.354 319.562 242.794 286.967 261.972C288.198 260.517 289.39 259.025 290.543 257.5C304.031 239.643 311.315 217.994 311.318 195.753V194.648L238.36 238.593L209.049 193.604L294.927 143.233L296.883 143.398C296.726 143.12 296.561 142.851 296.394 142.58L296.299 142.427L347.111 112.618C350.007 117.35 352.649 122.227 355.027 127.23C360.218 138.105 364.15 149.519 366.749 161.256C369.236 172.588 370.484 184.148 370.475 195.741ZM205.945 357.481C287.884 357.481 355.838 298.596 368.396 221.519C298.767 283.936 189.598 327.638 186.387 328.9L161.155 351.416C175.395 355.367 190.419 357.481 205.945 357.481ZM116.994 331.829C71.5269 303.051 41.4146 252.854 41.4146 195.741C41.4146 106.411 115.081 34.0001 205.945 34.0001C228.178 33.9714 250.184 38.3882 270.627 46.9821L246.611 100.167C225.74 91.5822 202.613 89.8279 180.649 95.1637C158.685 100.5 139.051 112.642 124.651 129.796C110.25 146.95 101.847 168.204 100.685 190.416C99.523 212.628 105.663 234.617 118.197 253.133C124.073 261.813 131.208 269.513 139.324 276.02L139.234 276.001L142.423 324.914L116.994 331.829Z" fill="white"/>
<path fill-rule="evenodd" clip-rule="evenodd" d="M175.876 142.409C291.568 83.6087 401.841 67.3004 422.186 105.978C434.008 128.45 412.855 164.552 370.35 202.406C347.924 222.345 319.551 242.822 286.943 262.018C274.985 269.069 262.514 275.893 249.529 282.488C241.367 286.63 233.255 290.556 225.194 294.269L225.222 294.244L193.415 287.496C212.056 280.806 231.569 272.396 251.268 262.384C269.903 252.958 287.919 242.393 305.209 230.75C332.688 212.134 354.76 192.701 369.158 174.794C385.518 154.439 391.987 136.068 385.158 123.134C368.835 92.0863 282.429 104.11 192.161 149.989C156.175 168.275 125.014 189.186 101.576 209.681C100.942 205.06 100.625 200.403 100.626 195.741C100.626 192.705 100.757 189.704 101.018 186.738C124.939 170.34 149.947 155.531 175.876 142.409ZM140.95 302.314C118.65 306.703 99.2973 307.682 84.6764 305.004C71.7933 302.648 62.5921 297.454 58.277 289.251C54.8374 282.708 54.7815 274.774 57.6934 265.899C52.2909 254.886 48.1872 243.302 45.4623 231.372C9.45198 265.918 -7.63431 298.193 3.2433 318.901C14.8009 340.874 55.3869 345.101 109.499 333.868L109.499 333.867L142.424 324.914L140.95 302.314Z" fill="#F89F1C"/>
<path d="M124.214 309.771L91.376 267.401L198.103 300.689L117.21 376.933L123.698 325.908L124.214 309.771Z" fill="#F89F1C"/>
</svg>
