<svg width="1152" height="406" viewBox="0 0 1152 406" fill="none" xmlns="http://www.w3.org/2000/svg">
<path d="M625.303 323.629C622.227 323.629 619.453 323.106 616.98 322.061C614.528 321.015 612.497 319.528 610.889 317.598C609.301 315.648 608.265 313.346 607.783 310.692L613.331 309.818C614.035 312.552 615.492 314.693 617.704 316.241C619.935 317.769 622.559 318.533 625.574 318.533C627.524 318.533 629.283 318.231 630.851 317.628C632.439 317.005 633.696 316.12 634.621 314.974C635.545 313.829 636.008 312.472 636.008 310.904C636.008 309.939 635.837 309.114 635.495 308.431C635.173 307.727 634.721 307.134 634.138 306.652C633.575 306.149 632.932 305.727 632.208 305.385C631.484 305.043 630.731 304.762 629.947 304.541L618.88 301.254C617.674 300.892 616.508 300.44 615.382 299.897C614.256 299.334 613.251 298.641 612.366 297.816C611.482 296.972 610.778 295.967 610.256 294.801C609.733 293.615 609.472 292.218 609.472 290.61C609.472 288.036 610.135 285.845 611.462 284.036C612.809 282.206 614.628 280.809 616.92 279.844C619.212 278.879 621.795 278.407 624.669 278.427C627.584 278.447 630.188 278.97 632.48 279.995C634.791 281 636.701 282.448 638.209 284.337C639.737 286.227 640.762 288.489 641.285 291.122L635.585 292.117C635.284 290.348 634.61 288.83 633.565 287.564C632.54 286.277 631.253 285.292 629.705 284.609C628.157 283.905 626.459 283.543 624.609 283.523C622.84 283.503 621.242 283.785 619.815 284.368C618.387 284.951 617.251 285.765 616.407 286.81C615.563 287.835 615.141 289.021 615.141 290.368C615.141 291.695 615.523 292.771 616.287 293.595C617.05 294.399 617.985 295.042 619.091 295.525C620.217 295.987 621.312 296.369 622.378 296.671L630.64 299.053C631.585 299.314 632.671 299.676 633.897 300.138C635.143 300.601 636.349 301.254 637.515 302.098C638.681 302.923 639.646 304.028 640.41 305.415C641.174 306.782 641.556 308.511 641.556 310.602C641.556 312.693 641.134 314.552 640.29 316.181C639.465 317.809 638.309 319.176 636.822 320.282C635.334 321.367 633.605 322.191 631.635 322.754C629.665 323.337 627.554 323.629 625.303 323.629ZM660.245 323.568C658.154 323.568 656.355 323.237 654.847 322.573C653.36 321.91 652.123 321.025 651.138 319.92C650.153 318.814 649.379 317.588 648.816 316.241C648.253 314.894 647.851 313.517 647.61 312.11C647.389 310.703 647.278 309.386 647.278 308.159V290.157H652.706V306.471C652.706 307.999 652.847 309.476 653.128 310.904C653.41 312.331 653.882 313.617 654.546 314.763C655.229 315.909 656.134 316.814 657.26 317.477C658.405 318.141 659.833 318.472 661.541 318.472C662.888 318.472 664.115 318.241 665.22 317.779C666.326 317.316 667.271 316.633 668.055 315.728C668.839 314.804 669.442 313.638 669.864 312.23C670.286 310.823 670.497 309.185 670.497 307.315L674.025 308.401C674.025 311.537 673.453 314.241 672.307 316.512C671.181 318.784 669.583 320.533 667.512 321.759C665.462 322.965 663.039 323.568 660.245 323.568ZM671.1 322.724V314.009H670.497V290.157H675.895V322.724H671.1ZM698.058 323.629C694.761 323.629 691.957 322.895 689.645 321.427C687.353 319.94 685.604 317.899 684.398 315.306C683.192 312.713 682.569 309.758 682.529 306.441C682.569 303.043 683.202 300.058 684.428 297.485C685.675 294.891 687.454 292.871 689.766 291.424C692.078 289.976 694.862 289.253 698.118 289.253C701.556 289.253 704.511 290.097 706.984 291.786C709.477 293.474 711.145 295.786 711.99 298.721L706.682 300.319C705.999 298.43 704.883 296.962 703.335 295.917C701.807 294.871 700.048 294.349 698.058 294.349C695.827 294.349 693.987 294.871 692.54 295.917C691.092 296.942 690.017 298.369 689.313 300.199C688.61 302.008 688.248 304.089 688.228 306.441C688.268 310.059 689.102 312.984 690.731 315.216C692.379 317.427 694.822 318.533 698.058 318.533C700.189 318.533 701.958 318.05 703.365 317.085C704.773 316.1 705.838 314.683 706.562 312.833L711.99 314.251C710.864 317.286 709.105 319.608 706.713 321.216C704.32 322.825 701.435 323.629 698.058 323.629ZM730.981 323.629C727.684 323.629 724.88 322.895 722.568 321.427C720.276 319.94 718.527 317.899 717.321 315.306C716.115 312.713 715.491 309.758 715.451 306.441C715.491 303.043 716.125 300.058 717.351 297.485C718.597 294.891 720.376 292.871 722.688 291.424C725 289.976 727.784 289.253 731.041 289.253C734.479 289.253 737.434 290.097 739.907 291.786C742.399 293.474 744.068 295.786 744.912 298.721L739.605 300.319C738.922 298.43 737.806 296.962 736.258 295.917C734.73 294.871 732.971 294.349 730.981 294.349C728.749 294.349 726.91 294.871 725.463 295.917C724.015 296.942 722.94 298.369 722.236 300.199C721.532 302.008 721.171 304.089 721.15 306.441C721.191 310.059 722.025 312.984 723.653 315.216C725.302 317.427 727.744 318.533 730.981 318.533C733.112 318.533 734.881 318.05 736.288 317.085C737.695 316.1 738.761 314.683 739.484 312.833L744.912 314.251C743.786 317.286 742.027 319.608 739.635 321.216C737.243 322.825 734.358 323.629 730.981 323.629ZM764.295 323.629C761.099 323.629 758.305 322.925 755.913 321.518C753.54 320.091 751.691 318.11 750.364 315.577C749.037 313.024 748.374 310.049 748.374 306.652C748.374 303.093 749.027 300.018 750.334 297.424C751.641 294.811 753.46 292.801 755.792 291.394C758.144 289.966 760.898 289.253 764.054 289.253C767.331 289.253 770.115 290.006 772.407 291.514C774.719 293.022 776.448 295.173 777.594 297.967C778.76 300.762 779.262 304.089 779.101 307.948H773.674V306.018C773.613 302.018 772.799 299.033 771.231 297.063C769.663 295.072 767.331 294.077 764.235 294.077C760.918 294.077 758.395 295.143 756.666 297.274C754.938 299.405 754.073 302.46 754.073 306.441C754.073 310.28 754.938 313.256 756.666 315.366C758.395 317.477 760.858 318.533 764.054 318.533C766.205 318.533 768.075 318.04 769.663 317.055C771.251 316.07 772.498 314.653 773.402 312.803L778.559 314.582C777.292 317.457 775.382 319.689 772.829 321.277C770.296 322.845 767.452 323.629 764.295 323.629ZM752.264 307.948V303.636H776.327V307.948H752.264ZM798.118 323.599C794.238 323.599 791.052 322.754 788.559 321.066C786.086 319.357 784.569 316.975 784.006 313.919L789.494 313.045C789.936 314.814 790.951 316.221 792.539 317.266C794.128 318.291 796.098 318.804 798.45 318.804C800.681 318.804 802.43 318.342 803.697 317.417C804.963 316.492 805.596 315.236 805.596 313.648C805.596 312.723 805.385 311.979 804.963 311.416C804.541 310.833 803.667 310.29 802.34 309.788C801.033 309.285 799.053 308.682 796.399 307.979C793.525 307.215 791.263 306.421 789.614 305.596C787.966 304.772 786.79 303.817 786.086 302.732C785.383 301.646 785.031 300.329 785.031 298.781C785.031 296.872 785.554 295.203 786.599 293.776C787.644 292.328 789.102 291.213 790.971 290.429C792.861 289.645 795.052 289.253 797.545 289.253C800.018 289.253 802.229 289.645 804.179 290.429C806.129 291.213 807.697 292.328 808.883 293.776C810.089 295.203 810.803 296.872 811.024 298.781L805.536 299.776C805.275 298.028 804.43 296.65 803.003 295.645C801.596 294.64 799.777 294.107 797.545 294.047C795.434 293.967 793.716 294.339 792.389 295.163C791.082 295.987 790.429 297.103 790.429 298.51C790.429 299.294 790.67 299.967 791.152 300.53C791.655 301.093 792.57 301.626 793.896 302.129C795.243 302.631 797.193 303.204 799.746 303.847C802.621 304.571 804.883 305.365 806.531 306.23C808.2 307.074 809.386 308.079 810.089 309.245C810.793 310.391 811.145 311.808 811.145 313.497C811.145 316.633 809.989 319.106 807.677 320.915C805.365 322.704 802.179 323.599 798.118 323.599ZM830.098 323.599C826.219 323.599 823.032 322.754 820.539 321.066C818.067 319.357 816.549 316.975 815.986 313.919L821.474 313.045C821.916 314.814 822.932 316.221 824.52 317.266C826.108 318.291 828.078 318.804 830.43 318.804C832.662 318.804 834.411 318.342 835.677 317.417C836.943 316.492 837.577 315.236 837.577 313.648C837.577 312.723 837.366 311.979 836.943 311.416C836.521 310.833 835.647 310.29 834.32 309.788C833.013 309.285 831.033 308.682 828.38 307.979C825.505 307.215 823.243 306.421 821.595 305.596C819.946 304.772 818.77 303.817 818.067 302.732C817.363 301.646 817.011 300.329 817.011 298.781C817.011 296.872 817.534 295.203 818.579 293.776C819.625 292.328 821.082 291.213 822.952 290.429C824.841 289.645 827.033 289.253 829.525 289.253C831.998 289.253 834.209 289.645 836.159 290.429C838.109 291.213 839.678 292.328 840.864 293.776C842.07 295.203 842.783 296.872 843.005 298.781L837.516 299.776C837.255 298.028 836.411 296.65 834.983 295.645C833.576 294.64 831.757 294.107 829.525 294.047C827.415 293.967 825.696 294.339 824.369 295.163C823.062 295.987 822.409 297.103 822.409 298.51C822.409 299.294 822.65 299.967 823.133 300.53C823.635 301.093 824.55 301.626 825.877 302.129C827.224 302.631 829.174 303.204 831.727 303.847C834.601 304.571 836.863 305.365 838.512 306.23C840.18 307.074 841.366 308.079 842.07 309.245C842.773 310.391 843.125 311.808 843.125 313.497C843.125 316.633 841.969 319.106 839.657 320.915C837.346 322.704 834.159 323.599 830.098 323.599ZM877.258 323.629C874.182 323.629 871.408 323.106 868.936 322.061C866.483 321.015 864.453 319.528 862.844 317.598C861.256 315.648 860.221 313.346 859.738 310.692L865.287 309.818C865.99 312.552 867.448 314.693 869.659 316.241C871.891 317.769 874.514 318.533 877.53 318.533C879.48 318.533 881.239 318.231 882.807 317.628C884.395 317.005 885.651 316.12 886.576 314.974C887.501 313.829 887.963 312.472 887.963 310.904C887.963 309.939 887.792 309.114 887.45 308.431C887.129 307.727 886.677 307.134 886.094 306.652C885.531 306.149 884.887 305.727 884.164 305.385C883.44 305.043 882.686 304.762 881.902 304.541L870.835 301.254C869.629 300.892 868.463 300.44 867.337 299.897C866.212 299.334 865.206 298.641 864.322 297.816C863.437 296.972 862.734 295.967 862.211 294.801C861.688 293.615 861.427 292.218 861.427 290.61C861.427 288.036 862.091 285.845 863.417 284.036C864.764 282.206 866.584 280.809 868.875 279.844C871.167 278.879 873.75 278.407 876.625 278.427C879.54 278.447 882.143 278.97 884.435 279.995C886.747 281 888.657 282.448 890.164 284.337C891.692 286.227 892.717 288.489 893.24 291.122L887.541 292.117C887.239 290.348 886.566 288.83 885.521 287.564C884.495 286.277 883.209 285.292 881.661 284.609C880.113 283.905 878.414 283.543 876.565 283.523C874.796 283.503 873.197 283.785 871.77 284.368C870.343 284.951 869.207 285.765 868.363 286.81C867.518 287.835 867.096 289.021 867.096 290.368C867.096 291.695 867.478 292.771 868.242 293.595C869.006 294.399 869.941 295.042 871.046 295.525C872.172 295.987 873.268 296.369 874.333 296.671L882.596 299.053C883.54 299.314 884.626 299.676 885.852 300.138C887.099 300.601 888.305 301.254 889.471 302.098C890.637 302.923 891.602 304.028 892.366 305.415C893.13 306.782 893.512 308.511 893.512 310.602C893.512 312.693 893.089 314.552 892.245 316.181C891.421 317.809 890.265 319.176 888.777 320.282C887.29 321.367 885.561 322.191 883.591 322.754C881.621 323.337 879.51 323.629 877.258 323.629ZM903.771 337.198L910.073 320.071L910.164 325.136L895.931 290.157H901.57L912.727 318.291H910.797L921.261 290.157H926.719L908.988 337.198H903.771ZM944.003 323.599C940.123 323.599 936.936 322.754 934.444 321.066C931.971 319.357 930.453 316.975 929.89 313.919L935.378 313.045C935.821 314.814 936.836 316.221 938.424 317.266C940.012 318.291 941.982 318.804 944.334 318.804C946.566 318.804 948.315 318.342 949.581 317.417C950.848 316.492 951.481 315.236 951.481 313.648C951.481 312.723 951.27 311.979 950.848 311.416C950.425 310.833 949.551 310.29 948.224 309.788C946.917 309.285 944.937 308.682 942.284 307.979C939.409 307.215 937.147 306.421 935.499 305.596C933.851 304.772 932.674 303.817 931.971 302.732C931.267 301.646 930.915 300.329 930.915 298.781C930.915 296.872 931.438 295.203 932.484 293.776C933.529 292.328 934.986 291.213 936.856 290.429C938.746 289.645 940.937 289.253 943.43 289.253C945.902 289.253 948.114 289.645 950.064 290.429C952.014 291.213 953.582 292.328 954.768 293.776C955.974 295.203 956.688 296.872 956.909 298.781L951.421 299.776C951.159 298.028 950.315 296.65 948.888 295.645C947.48 294.64 945.661 294.107 943.43 294.047C941.319 293.967 939.6 294.339 938.273 295.163C936.966 295.987 936.313 297.103 936.313 298.51C936.313 299.294 936.554 299.967 937.037 300.53C937.539 301.093 938.454 301.626 939.781 302.129C941.128 302.631 943.078 303.204 945.631 303.847C948.506 304.571 950.767 305.365 952.416 306.23C954.084 307.074 955.27 308.079 955.974 309.245C956.678 310.391 957.029 311.808 957.029 313.497C957.029 316.633 955.873 319.106 953.562 320.915C951.25 322.704 948.063 323.599 944.003 323.599ZM981.863 322.724C979.933 323.106 978.023 323.257 976.134 323.176C974.264 323.116 972.596 322.744 971.128 322.061C969.66 321.357 968.545 320.272 967.781 318.804C967.138 317.517 966.786 316.221 966.725 314.914C966.685 313.587 966.665 312.09 966.665 310.421V281.111H972.033V310.18C972.033 311.507 972.043 312.642 972.063 313.587C972.103 314.532 972.314 315.346 972.696 316.03C973.42 317.316 974.566 318.07 976.134 318.291C977.722 318.513 979.632 318.452 981.863 318.11V322.724ZM960.061 294.59V290.157H981.863V294.59H960.061ZM1001.23 323.629C998.036 323.629 995.242 322.925 992.85 321.518C990.477 320.091 988.628 318.11 987.301 315.577C985.974 313.024 985.311 310.049 985.311 306.652C985.311 303.093 985.964 300.018 987.271 297.424C988.578 294.811 990.397 292.801 992.729 291.394C995.081 289.966 997.835 289.253 1000.99 289.253C1004.27 289.253 1007.05 290.006 1009.34 291.514C1011.66 293.022 1013.38 295.173 1014.53 297.967C1015.7 300.762 1016.2 304.089 1016.04 307.948H1010.61V306.018C1010.55 302.018 1009.74 299.033 1008.17 297.063C1006.6 295.072 1004.27 294.077 1001.17 294.077C997.855 294.077 995.332 295.143 993.604 297.274C991.875 299.405 991.01 302.46 991.01 306.441C991.01 310.28 991.875 313.256 993.604 315.366C995.332 317.477 997.795 318.533 1000.99 318.533C1003.14 318.533 1005.01 318.04 1006.6 317.055C1008.19 316.07 1009.43 314.653 1010.34 312.803L1015.5 314.582C1014.23 317.457 1012.32 319.689 1009.77 321.277C1007.23 322.845 1004.39 323.629 1001.23 323.629ZM989.201 307.948V303.636H1013.26V307.948H989.201ZM1060.8 322.724L1060.83 301.887C1060.83 299.455 1060.18 297.555 1058.87 296.188C1057.58 294.801 1055.9 294.107 1053.83 294.107C1052.63 294.107 1051.48 294.389 1050.39 294.952C1049.31 295.495 1048.42 296.359 1047.74 297.545C1047.06 298.711 1046.72 300.209 1046.72 302.038L1043.88 300.892C1043.84 298.58 1044.31 296.56 1045.3 294.831C1046.3 293.082 1047.67 291.725 1049.4 290.76C1051.13 289.795 1053.08 289.313 1055.25 289.313C1058.65 289.313 1061.32 290.348 1063.27 292.419C1065.22 294.469 1066.2 297.233 1066.2 300.711L1066.17 322.724H1060.8ZM1021.84 322.724V290.157H1026.63V298.872H1027.24V322.724H1021.84ZM1041.35 322.724L1041.38 302.098C1041.38 299.606 1040.74 297.656 1039.45 296.248C1038.16 294.821 1036.45 294.107 1034.32 294.107C1032.21 294.107 1030.5 294.831 1029.2 296.279C1027.89 297.726 1027.24 299.646 1027.24 302.038L1024.4 300.349C1024.4 298.239 1024.9 296.349 1025.91 294.68C1026.91 293.012 1028.28 291.705 1030.01 290.76C1031.74 289.795 1033.7 289.313 1035.89 289.313C1038.08 289.313 1039.99 289.775 1041.62 290.7C1043.25 291.625 1044.5 292.952 1045.39 294.68C1046.27 296.389 1046.72 298.43 1046.72 300.802L1046.69 322.724H1041.35ZM1086.35 323.599C1082.47 323.599 1079.29 322.754 1076.79 321.066C1074.32 319.357 1072.8 316.975 1072.24 313.919L1077.73 313.045C1078.17 314.814 1079.19 316.221 1080.77 317.266C1082.36 318.291 1084.33 318.804 1086.68 318.804C1088.92 318.804 1090.67 318.342 1091.93 317.417C1093.2 316.492 1093.83 315.236 1093.83 313.648C1093.83 312.723 1093.62 311.979 1093.2 311.416C1092.78 310.833 1091.9 310.29 1090.57 309.788C1089.27 309.285 1087.29 308.682 1084.63 307.979C1081.76 307.215 1079.5 306.421 1077.85 305.596C1076.2 304.772 1075.03 303.817 1074.32 302.732C1073.62 301.646 1073.27 300.329 1073.27 298.781C1073.27 296.872 1073.79 295.203 1074.83 293.776C1075.88 292.328 1077.34 291.213 1079.21 290.429C1081.1 289.645 1083.29 289.253 1085.78 289.253C1088.25 289.253 1090.46 289.645 1092.41 290.429C1094.36 291.213 1095.93 292.328 1097.12 293.776C1098.32 295.203 1099.04 296.872 1099.26 298.781L1093.77 299.776C1093.51 298.028 1092.67 296.65 1091.24 295.645C1089.83 294.64 1088.01 294.107 1085.78 294.047C1083.67 293.967 1081.95 294.339 1080.62 295.163C1079.32 295.987 1078.66 297.103 1078.66 298.51C1078.66 299.294 1078.91 299.967 1079.39 300.53C1079.89 301.093 1080.8 301.626 1082.13 302.129C1083.48 302.631 1085.43 303.204 1087.98 303.847C1090.86 304.571 1093.12 305.365 1094.77 306.23C1096.43 307.074 1097.62 308.079 1098.32 309.245C1099.03 310.391 1099.38 311.808 1099.38 313.497C1099.38 316.633 1098.22 319.106 1095.91 320.915C1093.6 322.704 1090.41 323.599 1086.35 323.599Z" fill="#F89F1C"/>
<path d="M579.792 120.067C553.446 120.067 548.361 117.756 533.108 117.756C501.446 117.756 479.953 137.4 479.953 165.365C479.953 191.018 502.602 210.662 531.953 210.662C534.957 210.662 537.73 210.431 540.504 210.2C553.215 211.587 560.841 220.831 560.841 234.004C560.841 248.102 549.979 257.809 533.339 257.809C500.522 257.578 507.224 221.987 490.122 221.987C482.495 221.987 479.028 227.302 479.028 232.849C479.028 249.258 497.517 266.36 532.415 266.36C564.308 266.36 588.112 253.418 588.112 232.849C588.112 220.138 579.561 209.738 559.455 205.116C575.863 197.489 586.263 182.698 586.263 164.209C586.263 152.885 580.255 141.098 571.704 133.472C578.637 131.623 586.957 132.547 589.73 126.538C591.81 123.072 589.961 120.067 579.792 120.067ZM506.762 153.578C506.762 137.863 515.082 126.538 528.717 126.538C547.206 126.538 559.455 149.187 559.455 174.378C559.455 190.094 550.673 201.649 536.344 201.649C520.166 201.649 506.762 179.694 506.762 153.578ZM609.389 231H644.518C647.522 231 649.602 229.613 649.602 227.533V226.84C649.602 221.524 640.126 220.831 640.126 211.818V61.5965C640.126 58.1298 637.122 55.3565 631.807 57.8987L608.464 69.4542C606.153 70.6098 604.536 71.5342 604.536 73.6142V74.3075C604.536 78.4675 613.087 80.3164 613.087 90.023V211.818C613.087 220.831 604.536 221.524 604.536 226.84V227.533C604.536 229.613 606.384 231 609.389 231ZM725.83 233.311C759.341 233.311 781.528 207.889 781.528 176.227C781.528 144.334 757.03 117.756 720.515 117.756C688.853 117.756 663.2 141.56 663.2 174.378C663.2 205.116 686.542 233.311 725.83 233.311ZM729.297 224.529C705.955 224.529 690.47 194.022 690.47 165.365C690.47 139.943 701.102 126.538 717.51 126.538C738.772 126.538 754.257 153.347 754.257 185.702C754.257 210.662 743.626 224.529 729.297 224.529ZM861.784 117.756C849.304 117.756 838.442 122.147 831.278 130.005V61.8276C831.278 56.9743 827.811 55.5876 822.958 57.8987L799.154 69.2231C795.687 70.8409 794.531 71.7653 794.531 73.8453V74.5386C794.531 79.623 804.469 80.3164 804.469 90.2541V211.587C804.469 220.831 795.687 222.218 795.687 227.071V227.764C795.687 229.844 797.305 231 799.847 231L824.807 231.462C827.811 231.462 829.429 230.076 829.429 227.071L829.198 218.751C837.056 227.996 848.149 233.311 862.015 233.311C891.135 233.311 915.402 208.813 915.402 173.685C915.402 138.556 889.517 117.756 861.784 117.756ZM858.78 224.529C844.682 224.529 831.278 208.582 831.278 191.711V152.654C831.278 137.863 842.14 126.538 855.082 126.538C874.958 126.538 888.131 149.187 888.131 182.236C888.131 209.276 877.038 224.529 858.78 224.529ZM1029.6 210.2L1024.98 165.827C1021.75 136.014 1003.03 117.756 973.907 117.756C949.178 117.756 931.152 129.081 931.152 143.64C931.152 150.112 935.543 154.272 942.476 154.272C957.036 154.272 952.414 126.307 973.907 126.307C990.085 126.307 995.631 140.174 998.173 166.983L998.636 171.605C992.396 166.751 983.151 163.747 971.827 163.747C948.485 163.747 929.534 175.765 929.765 198.414C929.765 221.062 947.791 233.311 972.982 233.311C989.391 233.311 999.791 227.071 1005.11 218.52C1006.03 229.844 1011.81 232.387 1023.6 232.387C1033.53 232.387 1042.32 231 1042.32 226.609C1042.32 220.6 1031.22 225.222 1029.6 210.2ZM980.609 224.529C966.28 224.529 957.036 210.893 957.036 195.178C957.036 181.311 966.049 172.529 978.76 172.529C991.009 172.529 999.791 180.849 1000.72 194.022L1001.41 201.187C1002.1 213.667 993.551 224.529 980.609 224.529ZM1054.91 231H1090.04C1093.04 231 1095.12 229.613 1095.12 227.533V226.84C1095.12 221.524 1085.64 220.831 1085.64 211.818V61.5965C1085.64 58.1298 1082.64 55.3565 1077.32 57.8987L1053.98 69.4542C1051.67 70.6098 1050.05 71.5342 1050.05 73.6142V74.3075C1050.05 78.4675 1058.61 80.3164 1058.61 90.023V211.818C1058.61 220.831 1050.05 221.524 1050.05 226.84V227.533C1050.05 229.613 1051.9 231 1054.91 231Z" fill="#005DF2"/>
<path d="M371.903 195.643C371.903 285.317 297.953 358.007 206.739 358.007C115.525 358.007 41.5745 285.317 41.5745 195.643C41.5745 105.969 115.525 33.2788 206.739 33.2788C229.058 33.25 251.149 37.6839 271.67 46.3109L247.563 99.7011C226.611 91.083 203.394 89.3219 181.346 94.6783C159.297 100.035 139.588 112.224 125.131 129.444C110.675 146.664 102.24 168.001 101.074 190.298C99.907 212.595 106.071 234.67 118.653 253.257C131.236 271.844 149.569 285.957 170.943 293.509C192.316 301.061 215.594 301.651 237.334 295.191C259.075 288.732 278.123 275.566 291.663 257.64C305.203 239.715 312.516 217.982 312.519 195.655C312.519 195.282 312.519 194.914 312.519 194.546L239.279 238.66L209.855 193.499L296.065 142.933L298.028 143.098C297.841 142.768 297.642 142.449 297.442 142.124L348.45 112.2C351.357 116.95 354.01 121.846 356.397 126.868C361.607 137.785 365.554 149.243 368.164 161.026C370.66 172.401 371.913 184.006 371.903 195.643Z" fill="#005DF2"/>
<path d="M423.814 105.534C403.39 66.7075 292.693 83.0787 176.554 142.106C150.525 155.278 125.421 170.145 101.407 186.606C101.145 189.583 101.014 192.596 101.014 195.643C101.013 200.323 101.331 204.999 101.968 209.637C125.496 189.063 156.778 168.072 192.902 149.715C283.518 103.659 370.258 91.589 386.643 122.757C393.499 135.74 387.005 154.182 370.582 174.615C356.128 192.592 333.971 212.1 306.386 230.787C289.029 242.475 270.944 253.081 252.237 262.543C225.162 276.304 198.437 287.051 173.83 294.477C137.837 305.371 106.381 309.243 85.0029 305.328C72.0702 302.963 62.8335 297.749 58.5018 289.514C55.0489 282.946 54.9928 274.981 57.9159 266.072C52.4925 255.017 48.373 243.388 45.6376 231.412C9.48843 266.091 -7.66375 298.49 3.25581 319.279C15.4219 342.408 59.6299 345.949 117.936 332.55C147.622 325.73 180.96 314.518 215.589 299.268C227.119 294.195 238.753 288.681 250.491 282.725C263.526 276.104 276.045 269.254 288.049 262.176C320.783 242.906 349.266 222.35 371.778 202.334C414.447 164.334 435.681 128.093 423.814 105.534Z" fill="#F89F1C"/>
<path d="M139.771 276.213L226.091 294.526L101.171 406L109.921 334.303L142.973 325.314L139.771 276.213Z" fill="white"/>
<path d="M124.693 310.113L91.7285 267.58L198.867 300.996L117.662 377.534L124.176 326.313L124.693 310.113Z" fill="#F89F1C"/>
<path d="M426.906 122.861C426.906 234.029 188.901 328.629 187.043 329.34L226.06 294.526C234.15 290.793 242.285 286.851 250.467 282.701C351.335 231.462 423.097 164.917 426.906 122.861Z" fill="white"/>
</svg>
