<svg width="111" height="111" viewBox="0 0 111 111" fill="none" xmlns="http://www.w3.org/2000/svg">
<path d="M54.5 0L56.9481 5.13044L62.584 5.87336L58.4612 9.78706L59.4962 15.3766L54.5 12.665L49.5038 15.3766L50.5388 9.78706L46.416 5.87336L52.0519 5.13044L54.5 0Z" fill="#77ABFF"/>
<path d="M55.5 33L62.8297 44.4116L75.9477 47.8561L67.3597 58.3534L68.1374 71.8939L55.5 66.97L42.8626 71.8939L43.6403 58.3534L35.0523 47.8561L48.1703 44.4116L55.5 33Z" fill="#005DF2"/>
<path d="M102.5 46L104.948 51.1304L110.584 51.8734L106.461 55.7871L107.496 61.3766L102.5 58.665L97.5038 61.3766L98.5388 55.7871L94.416 51.8734L100.052 51.1304L102.5 46Z" fill="#77ABFF"/>
<path d="M54.5 111L56.9481 105.87L62.584 105.127L58.4612 101.213L59.4962 95.6234L54.5 98.335L49.5038 95.6234L50.5388 101.213L46.416 105.127L52.0519 105.87L54.5 111Z" fill="#77ABFF"/>
<path d="M106.621 75.6102L102.299 71.9176L103.04 66.2815L98.1923 69.2509L93.061 66.8045L94.3872 72.3322L90.4748 76.4564L96.1418 76.9033L98.8551 81.8986L101.031 76.647L106.621 75.6102Z" fill="#77ABFF"/>
<path d="M94.3004 94.5626L92.977 89.0342L96.8913 84.912L91.2245 84.4624L88.5136 79.4658L86.3348 84.7163L80.7451 85.7504L85.0653 89.4451L84.3215 95.0808L89.1704 92.1137L94.3004 94.5626Z" fill="#77ABFF"/>
<path d="M75.6103 106.621L76.6471 101.031L81.8987 98.8551L76.9034 96.1418L76.4564 90.4748L72.3323 94.3871L66.8046 93.061L69.251 98.1922L66.2816 103.04L71.9177 102.299L75.6103 106.621Z" fill="#77ABFF"/>
<path d="M106.621 33.2104L102.299 36.9029L103.04 42.539L98.1923 39.5696L93.061 42.0161L94.3872 36.4883L90.4748 32.3642L96.1418 31.9173L98.8551 26.922L101.031 32.1735L106.621 33.2104Z" fill="#77ABFF"/>
<path d="M94.3004 14.2579L92.977 19.7863L96.8913 23.9085L91.2245 24.3582L88.5136 29.3548L86.3348 24.1043L80.7451 23.0701L85.0653 19.3755L84.3215 13.7397L89.1704 16.7068L94.3004 14.2579Z" fill="#77ABFF"/>
<path d="M75.6103 2.19996L76.6471 7.78921L81.8987 9.96548L76.9034 12.6788L76.4564 18.3458L72.3323 14.4334L66.8046 15.7596L69.251 10.6283L66.2816 5.7809L71.9177 6.52197L75.6103 2.19996Z" fill="#77ABFF"/>
<path d="M8.5 46L6.05187 51.1304L0.416019 51.8734L4.53885 55.7871L3.50383 61.3766L8.5 58.665L13.4962 61.3766L12.4612 55.7871L16.584 51.8734L10.9481 51.1304L8.5 46Z" fill="#77ABFF"/>
<path d="M4.37938 75.6102L8.70139 71.9176L7.96032 66.2815L12.8077 69.2509L17.939 66.8045L16.6128 72.3322L20.5252 76.4564L14.8582 76.9033L12.1449 81.8986L9.96863 76.647L4.37938 75.6102Z" fill="#77ABFF"/>
<path d="M16.6996 94.5626L18.023 89.0342L14.1087 84.912L19.7755 84.4624L22.4864 79.4658L24.6652 84.7163L30.2549 85.7504L25.9347 89.4451L26.6785 95.0808L21.8296 92.1137L16.6996 94.5626Z" fill="#77ABFF"/>
<path d="M35.3897 106.621L34.3529 101.031L29.1013 98.8551L34.0966 96.1418L34.5436 90.4748L38.6677 94.3871L44.1954 93.061L41.749 98.1922L44.7184 103.04L39.0823 102.299L35.3897 106.621Z" fill="#77ABFF"/>
<path d="M4.37938 33.2104L8.70139 36.9029L7.96032 42.539L12.8077 39.5696L17.939 42.0161L16.6128 36.4883L20.5252 32.3642L14.8582 31.9173L12.1449 26.922L9.96863 32.1735L4.37938 33.2104Z" fill="#77ABFF"/>
<path d="M16.6996 14.2579L18.023 19.7863L14.1087 23.9085L19.7755 24.3582L22.4864 29.3548L24.6652 24.1043L30.2549 23.0701L25.9347 19.3755L26.6785 13.7397L21.8296 16.7068L16.6996 14.2579Z" fill="#77ABFF"/>
<path d="M35.3897 2.19996L34.3529 7.78921L29.1013 9.96548L34.0966 12.6788L34.5436 18.3458L38.6677 14.4334L44.1954 15.7596L41.749 10.6283L44.7184 5.7809L39.0823 6.52197L35.3897 2.19996Z" fill="#77ABFF"/>
</svg>
